PathFileType	4	(X/Y/Z)	C:\Users\WrightLab\Desktop\Jo\P3_33.trc
DataRate	CameraRate	NumFrames	NumMarkers	Units	OrigDataRate	OrigDataStartFrame	OrigNumFrames
100.00	100.00	       18	19	mm	100.00	243	       646
Frame#	Time	Headset_Front			Headset_Back			Headset_Left			Headset_Right			Left_Shoulder			Right_Shoulder			Sternum			C7			Left Elbow			Right Elbow			Left Wrist			Right Wrist			Left ASIS			Right ASIS			S2			Left Knee			Right Knee			Left Ankle			Right Ankle			
		X1	Y1	Z1	X2	Y2	Z2	X3	Y3	Z3	X4	Y4	Z4	X5	Y5	Z5	X6	Y6	Z6	X7	Y7	Z7	X8	Y8	Z8	X9	Y9	Z9	X10	Y10	Z10	X11	Y11	Z11	X12	Y12	Z12	X13	Y13	Z13	X14	Y14	Z14	X15	Y15	Z15	X16	Y16	Z16	X17	Y17	Z17	X18	Y18	Z18	X19	Y19	Z19	

243	2.420	-291.72787	1446.47900	222.22504	-211.24690	1628.23145	451.26248	-346.35934	1553.68469	395.48947	-159.44368	1504.52576	279.74069	-340.05389	1342.13293	570.31409	-57.09330	1346.74695	349.73270	-282.00751	1224.32678	361.23166	-165.78258	1395.63220	497.20639	-385.43396	1006.44116	624.03375	14.40523	1032.08240	205.64508	-422.73730	823.61365	533.85693	-70.67810	921.35126	27.82176	-340.89893	860.36768	434.53546				-119.08906	940.03479	536.28925	-396.78369	453.96060	381.99377	-133.11922	447.54211	306.45026	-236.67056	243.03386	583.76813	-84.22272	118.54209	373.85583	
244	2.430	-295.34662	1445.73767	212.33315	-214.86244	1627.64648	442.37070	-350.95416	1553.38147	387.17255	-164.39136	1504.83301	269.01758	-344.11127	1342.09863	563.10278	-62.48257	1346.79260	341.63486	-286.41156	1223.58386	354.07712	-170.68639	1396.41467	489.37222	-387.94141	1006.14575	618.10455	9.94662	1033.56091	196.31403	-425.67346	823.05450	529.12555	-74.43284	923.01569	17.19430	-344.35114	861.60504	427.30344	-143.08200	883.44836	277.95486	-123.24295	940.61279	529.00458	-406.70480	458.41519	368.04645	-133.64816	447.21524	304.32993	-248.86313	237.58760	563.18573	-84.29527	118.73209	373.43134	
245	2.440	-300.48917	1446.30481	205.40291	-219.64342	1628.01111	433.95810	-355.65353	1553.45276	378.33432	-168.75777	1504.89917	259.28867	-348.29404	1342.61450	555.87006	-67.29384	1347.42712	332.76968	-291.34769	1224.06323	347.00204	-174.27734	1396.10168	480.73209	-390.34604	1007.14185	612.38556	5.30622	1035.13196	186.29707	-428.95776	822.37781	524.26849	-78.62847	924.72253	7.13978	-347.49451	862.78381	419.91153				-127.12967	940.46954	521.50287	-416.14737	462.91806	355.26859	-134.54495	446.78613	302.45596	-261.41534	231.57739	542.30157	-85.69026	118.48740	373.62143	
246	2.450	-304.75598	1445.18091	195.96637	-225.16145	1627.77271	425.96646	-359.60193	1552.96252	370.30313	-173.48663	1504.05811	253.54012	-352.46060	1342.50134	548.93152	-72.79973	1347.19556	324.62830	-295.88864	1223.75403	339.72943	-179.21793	1396.92615	473.04245	-392.88425	1006.34650	605.49164	0.67578	1036.07434	176.49535	-431.91992	822.11664	519.44489	-82.42864	926.85913	-3.46554	-351.02686	863.87573	412.61523	-151.01012	883.42029	263.40875	-130.99513	940.85217	513.97168	-425.39429	466.90585	342.75070	-134.55527	446.57230	300.36334	-275.23279	225.82666	521.11438	-85.15622	118.67706	372.94577	
247	2.460	-309.29550	1444.45959	188.38716	-229.49606	1627.66760	417.28540	-364.93118	1552.80127	361.33386	-178.37880	1503.95776	245.00011	-356.55664	1342.11047	541.55084	-77.52501	1347.38464	316.58578	-300.57739	1223.86316	332.57999	-183.85310	1397.18335	465.06186	-395.45160	1006.76807	599.23651	-3.63090	1037.39478	166.96992	-435.02631	821.45190	514.86212	-86.10134	928.05298	-13.20702	-354.72604	864.39282	405.41348	-154.33713	881.52130	257.62906	-134.24792	940.85516	506.97897	-433.69733	470.44617	330.61499	-135.14563	445.62607	298.72174	-289.85437	218.81273	500.06528	-85.39099	118.44408	372.81851	
248	2.470	-313.61035	1444.05859	180.26042	-234.78169	1628.06543	408.89981	-370.18192	1552.61157	353.21576	-182.96532	1503.43774	236.26071	-360.96802	1342.68579	534.94513	-82.67304	1347.14648	308.57968	-305.86426	1223.82471	324.98666	-188.30312	1397.07727	457.42825	-398.52518	1006.36029	593.57684	-8.60128	1037.52039	158.30740	-438.16388	821.28998	509.76096	-90.61762	929.82758	-22.95757	-358.56024	864.81714	398.24023	-158.55830	882.30560	246.16911	-138.42117	940.91864	499.90576	-441.72992	473.47827	319.87134	-136.44479	445.20813	297.03235	-304.49673	211.04767	478.33148	-85.88826	118.73410	372.41412	
249	2.480	-318.83423	1442.87305	173.01111	-239.90558	1627.81470	400.65518	-375.24915	1552.36462	345.40344	-187.80307	1503.13550	227.51222	-365.18750	1342.30408	527.09741	-87.66927	1347.54626	300.72678	-310.37329	1223.46912	317.45316	-192.92239	1397.26257	449.52182	-400.87460	1006.44482	587.84680	-13.15129	1038.42505	149.58505	-441.26294	820.39423	505.15976	-94.40031	930.82349	-32.56289	-362.86697	865.18317	391.44138	-162.64116	880.81329	241.90474	-142.16566	940.78247	493.23184	-449.23181	476.51315	309.61505	-137.36571	444.51825	294.20532	-319.90063	202.79660	457.11469	-85.89599	118.73766	372.28915	
250	2.490	-323.27859	1442.27087	165.10780	-245.42615	1627.89136	392.35959	-378.85526	1551.33105	336.75351	-193.05080	1502.48840	219.96892	-369.37817	1342.01050	519.71423	-92.73500	1347.21216	293.17517	-315.21906	1223.23669	310.11853	-197.75995	1396.78699	441.36450	-404.70004	1006.23181	581.93036	-17.53972	1038.78809	140.34187	-444.59561	819.75592	500.46848	-98.49152	931.78436	-41.77112	-367.21497	865.35101	384.61163	-168.10526	879.41113	232.79713	-146.49136	940.99249	485.56168	-456.12784	478.85245	299.65305	-139.29085	443.73535	291.66214	-335.59766	194.47595	435.72433	-86.65450	119.06665	372.03122	
251	2.500	-328.46124	1441.11450	157.24785	-250.08646	1627.52759	384.03714	-385.41559	1550.92700	328.77277	-197.82637	1501.49036	213.67061	-373.91586	1341.74365	512.62213	-97.75447	1346.49670	284.96011	-320.42578	1222.74976	302.60046	-202.88100	1396.22974	433.58289	-408.06952	1005.59875	576.36298	-22.24181	1039.08386	131.92986	-448.26825	819.25629	495.66113	-102.38611	932.26581	-51.10641	-371.54617	865.21167	377.57184				-150.49947	940.74500	478.08594	-462.76053	480.77170	290.72290	-140.63477	443.48187	288.95245	-352.02371	186.13452	413.60541	-87.42745	119.19517	371.27347	
252	2.510	-332.71854	1439.94458	150.24901	-255.54402	1627.06567	375.97443	-390.53006	1550.46631	320.69171	-202.69193	1500.83911	205.28471	-378.80893	1341.20117	505.63452	-103.19203	1346.12891	276.85461	-325.14230	1221.87244	295.20178	-208.12299	1396.17456	425.73541	-410.71198	1005.82275	570.07391	-26.36366	1039.20313	123.32783	-451.55350	818.19360	490.36395	-106.38927	933.11523	-60.21408	-375.95654	864.99042	370.18787	-175.64398	878.22870	220.63533	-154.94063	940.59918	470.60086	-468.66882	481.87555	282.65460	-142.89948	442.81818	286.68570	-369.01157	177.27045	391.02179	-87.68923	119.46114	371.08957	
253	2.520	-337.77927	1438.85730	142.71445	-261.34421	1626.65698	367.95468	-394.60367	1549.10510	312.48520	-207.91385	1499.86145	198.41443	-383.79099	1340.42480	498.31317	-108.17242	1345.72559	269.10669	-330.32208	1221.23340	287.69263	-213.19165	1395.39844	418.47922	-414.27490	1005.06537	563.99243	-31.05294	1039.05713	114.87622	-455.56641	817.35638	485.50818	-109.85109	933.67834	-68.98408	-380.70166	864.53851	363.25653	-180.19655	876.82550	213.71550	-159.78949	940.23291	463.04953	-474.29736	482.51529	275.10629	-143.86339	441.63116	284.03015	-386.36325	168.88303	368.73483	-87.86358	119.25011	370.96655	
254	2.530	-342.38333	1437.88440	135.40997	-267.23657	1626.01526	360.33084	-401.07129	1548.71008	304.37549	-212.40971	1498.67419	191.54823	-388.70151	1339.50879	490.56799	-112.79222	1345.06030	261.42700	-334.93036	1220.05127	280.16534	-218.00491	1394.73999	410.69171	-417.39014	1003.90765	557.88940	-35.54954	1039.28394	107.20783	-458.90344	816.22107	480.18283	-113.17210	933.27576	-77.34517	-385.13940	863.64099	355.50681	-184.58957	875.15955	206.42503	-164.67751	939.80188	456.71289	-479.14871	482.41550	267.60999	-145.10728	440.98816	280.74597	-404.23431	160.75806	347.27084	-89.70947	119.23910	370.88123	
255	2.540	-347.23776	1436.75964	127.76902	-271.88876	1625.15564	352.03497	-406.28073	1547.47876	296.56503	-217.70691	1497.84497	183.41231	-393.89316	1338.40027	483.10144	-118.57008	1344.33191	253.99577	-340.16464	1219.16638	272.46793	-223.63756	1393.58850	402.37146	-421.62311	1003.08264	552.31097	-40.08545	1038.46045	99.69450	-463.05466	815.24719	474.75977	-117.04721	933.74542	-86.16241	-390.16757	862.93732	348.32074	-188.66782	872.91394	199.27492	-169.30008	939.77106	449.86334	-483.47470	481.41644	260.70123	-147.07780	440.25021	277.84644	-422.57898	153.91838	324.83234	-90.34724	119.31161	369.68347	
256	2.550	-352.27219	1435.50562	119.13036	-277.21707	1623.77039	344.09390	-410.40598	1545.92432	288.21674	-222.88698	1497.02698	173.93803	-399.15637	1337.30566	475.17850	-124.06403	1343.34875	246.85840	-345.21750	1218.00085	265.09494	-229.14478	1393.18506	395.31567	-425.36438	1001.84387	546.10370	-44.34669	1038.55054	91.72053	-466.75699	813.66772	469.11343	-120.46362	933.19012	-94.05679	-395.09454	861.92261	340.84262	-194.71541	872.05786	192.58754	-175.11157	939.13782	442.42740	-487.13293	479.90359	254.11804	-148.99966	439.25058	275.01971	-441.11835	147.70784	303.79684	-90.96777	119.50507	369.43732	
257	2.560	-358.00757	1434.32166	110.79764	-283.72940	1622.92908	336.72504	-415.84204	1544.47839	280.31888	-227.99915	1496.36206	165.01158	-404.56400	1335.94250	467.89264	-129.04787	1342.27588	239.17822	-350.55991	1216.73401	257.38110	-234.58824	1392.22815	387.32864	-429.48682	1001.38647	539.56177	-48.95171	1037.75439	84.02021	-471.21851	812.60468	463.59766	-123.97463	933.16644	-102.39453	-401.51266	861.23071	332.81918	-198.65944	871.59192	184.13892	-180.52870	938.81647	436.35687	-490.45657	477.73105	248.15935	-152.27492	438.78995	272.53333	-460.15408	142.94058	283.41000	-91.30393	119.73468	368.59216	
258	2.570	-361.97830	1432.62476	104.47511	-289.15399	1621.80542	328.92813	-422.63525	1543.63074	272.30396	-233.46814	1494.89063	155.12704	-410.37747	1334.11230	460.28845	-134.95059	1340.20898	232.02850	-355.74869	1215.09912	249.41599	-240.19313	1390.92969	380.00702	-433.31363	1000.20953	532.97778	-52.98561	1036.35352	77.01509	-475.25955	810.81567	458.23642	-127.90873	932.63507	-110.90018	-407.02905	859.81879	325.12042	-202.32201	870.20648	180.59932	-186.29837	937.82050	429.20026	-493.71097	475.20667	242.09958	-152.87431	437.52863	268.51181	-478.21448	138.36749	262.33142	-91.45579	119.66727	368.28204	
259	2.580	-366.92093	1431.25488	97.31246	-294.80600	1620.24915	321.28183	-428.04575	1542.04590	264.08060	-238.58896	1493.03870	148.39911	-416.13159	1332.62476	452.15494	-140.20853	1338.63623	224.33350	-360.94211	1213.49902	241.42772	-246.09924	1389.51526	372.73535	-437.56653	998.45038	526.64734	-57.93856	1035.27441	69.71753	-479.79996	809.15997	452.33389	-131.44330	932.05505	-118.67003	-412.32651	858.28021	316.70834	-206.72935	868.77991	174.10159	-192.10320	936.90515	422.26807	-497.00821	472.51184	236.73322	-155.29396	436.27557	264.75464	-496.69254	135.71661	243.36804	-90.77922	120.46448	367.39935	
260	2.590	-371.86499	1429.62939	88.98430	-300.85538	1618.88989	313.71033	-433.69189	1540.52295	256.29382	-243.48366	1491.91516	140.55896	-421.90372	1331.03357	444.39520	-145.75980	1336.96106	216.48856	-366.53891	1212.27625	234.11450	-251.84801	1388.34583	365.47360	-441.93735	996.88885	520.03381	-62.91352	1034.51563	62.14199	-484.15906	807.20746	446.22653	-134.75487	930.73444	-125.92983	-418.05280	856.33252	308.55219	-211.74480	866.72345	166.23360	-198.09337	936.16394	416.01166	-500.83902	469.72235	230.97255	-158.26793	435.42328	262.01712	-513.84094	134.35464	223.30107	-91.49531	121.02563	366.08118	
